<?xml version="1.0" standalone="no"?>
<!DOCTYPE svg PUBLIC "-//W3C//DTD SVG 20010904//EN"
 "http://www.w3.org/TR/2001/REC-SVG-20010904/DTD/svg10.dtd">
<svg version="1.0" xmlns="http://www.w3.org/2000/svg"
 width="3440.000000pt" height="3440.000000pt" viewBox="0 0 3440.000000 3440.000000"
 preserveAspectRatio="xMidYMid meet">
<metadata>
Created by potrace 1.11, written by Peter Selinger 2001-2013
</metadata>
<g transform="translate(0.000000,3440.000000) scale(0.100000,-0.100000)"
fill="#000000" stroke="none">
<path d="M16628 34385 c-1 -2 -79 -6 -173 -10 -195 -7 -264 -11 -390 -19 -214
-15 -261 -18 -405 -31 -25 -3 -72 -7 -105 -10 -91 -8 -167 -16 -200 -20 -16
-3 -57 -7 -90 -10 -33 -3 -73 -8 -90 -10 -100 -13 -125 -16 -170 -21 -27 -3
-62 -7 -76 -10 -15 -2 -45 -6 -68 -9 -23 -3 -60 -7 -83 -10 -24 -3 -72 -10
-108 -16 -36 -6 -81 -13 -100 -15 -19 -2 -61 -9 -93 -15 -32 -5 -74 -12 -95
-15 -20 -2 -64 -9 -97 -16 -33 -6 -67 -12 -75 -13 -27 -4 -94 -16 -140 -26
-25 -5 -58 -11 -75 -13 -61 -10 -94 -16 -265 -52 -96 -20 -183 -37 -193 -40
-10 -2 -26 -5 -35 -8 -9 -3 -29 -7 -44 -10 -34 -6 -159 -35 -393 -93 -99 -24
-189 -46 -200 -48 -37 -9 -379 -103 -500 -138 -988 -289 -1937 -662 -2854
-1122 -213 -106 -269 -135 -441 -227 -36 -20 -101 -55 -145 -78 -44 -23 -92
-51 -107 -61 -14 -11 -29 -19 -32 -19 -8 0 -307 -173 -466 -270 -132 -80 -330
-203 -385 -238 -109 -71 -474 -314 -540 -361 -577 -407 -950 -697 -1425 -1106
-534 -460 -1072 -986 -1535 -1500 -49 -55 -92 -102 -95 -105 -3 -3 -34 -39
-69 -80 -36 -41 -70 -79 -76 -85 -5 -5 -33 -37 -60 -70 -28 -33 -52 -62 -55
-65 -31 -29 -386 -469 -486 -600 -43 -58 -83 -110 -89 -116 -5 -6 -18 -22 -28
-35 -9 -13 -43 -58 -73 -99 -203 -273 -494 -688 -619 -886 -11 -17 -45 -70
-75 -117 -161 -253 -277 -444 -418 -690 -93 -161 -116 -201 -209 -372 -124
-226 -337 -644 -428 -840 -86 -185 -205 -446 -205 -450 0 -2 -11 -28 -24 -57
-51 -113 -66 -148 -66 -153 0 -2 -11 -28 -24 -57 -13 -29 -33 -78 -45 -108
-12 -30 -26 -64 -31 -75 -21 -44 -146 -372 -217 -565 -139 -379 -316 -930
-409 -1275 -38 -139 -169 -653 -184 -720 -5 -22 -18 -83 -30 -135 -12 -52 -23
-104 -25 -115 -3 -11 -7 -31 -10 -45 -20 -92 -83 -412 -89 -450 -3 -19 -8 -46
-11 -60 -9 -44 -27 -144 -32 -175 -2 -16 -8 -55 -13 -85 -17 -102 -19 -115
-35 -220 -9 -58 -17 -116 -20 -130 -5 -36 -14 -98 -20 -150 -4 -25 -8 -56 -10
-70 -2 -14 -7 -50 -10 -80 -3 -30 -8 -66 -10 -80 -3 -23 -10 -81 -20 -170 -4
-36 -12 -110 -30 -285 -8 -81 -20 -233 -30 -365 -2 -41 -7 -109 -10 -150 -23
-329 -30 -570 -30 -1120 0 -478 6 -758 20 -965 2 -27 7 -95 10 -150 14 -206
25 -362 30 -401 2 -17 6 -66 10 -110 3 -43 8 -90 10 -104 2 -14 7 -56 10 -95
4 -38 8 -81 10 -95 2 -14 6 -50 10 -80 7 -61 23 -195 31 -251 2 -20 7 -54 9
-75 10 -75 16 -119 20 -144 6 -33 13 -75 20 -130 3 -25 24 -151 46 -280 22
-129 42 -244 43 -255 2 -11 6 -33 9 -50 4 -16 9 -43 12 -60 7 -33 6 -29 41
-205 26 -129 28 -140 64 -300 121 -536 269 -1078 437 -1595 19 -60 39 -119 43
-130 4 -11 17 -47 28 -80 46 -135 134 -378 182 -505 28 -74 60 -157 70 -185
18 -51 44 -114 60 -150 5 -11 30 -72 56 -135 25 -63 60 -146 76 -185 68 -157
179 -406 218 -490 23 -49 55 -118 71 -153 39 -85 272 -550 316 -632 20 -36 54
-99 76 -140 65 -122 91 -168 171 -309 42 -73 76 -137 76 -140 0 -4 5 -12 12
-19 7 -7 26 -37 43 -67 134 -240 515 -839 710 -1115 161 -229 228 -321 369
-510 88 -118 166 -221 173 -228 7 -8 26 -30 41 -50 34 -46 224 -285 232 -292
3 -3 45 -53 93 -112 48 -58 92 -112 99 -120 7 -7 26 -29 42 -48 35 -43 127
-149 182 -210 22 -25 56 -63 75 -84 319 -364 1011 -1060 1320 -1327 13 -11 40
-35 59 -52 51 -47 180 -160 214 -188 16 -13 34 -28 40 -34 6 -5 40 -35 76 -65
36 -30 67 -57 70 -60 10 -11 377 -308 455 -368 316 -245 665 -500 912 -667
122 -82 494 -326 550 -360 276 -169 526 -318 696 -414 88 -50 106 -60 182
-101 44 -23 94 -50 110 -60 86 -50 628 -325 768 -389 34 -16 105 -49 157 -73
52 -25 111 -52 130 -61 44 -20 275 -120 355 -154 33 -14 78 -33 100 -43 71
-31 186 -77 375 -150 102 -40 194 -76 205 -80 31 -14 214 -80 219 -80 3 0 17
-5 33 -12 15 -6 33 -12 38 -13 6 -2 73 -25 150 -53 173 -62 688 -226 775 -247
8 -2 71 -20 140 -40 69 -20 132 -38 140 -40 8 -2 96 -25 195 -50 324 -84 690
-170 805 -190 19 -3 51 -10 70 -15 19 -5 49 -11 65 -14 17 -2 75 -13 130 -24
110 -22 219 -43 250 -47 11 -2 101 -17 200 -34 99 -16 198 -33 220 -36 23 -3
50 -7 60 -9 11 -2 43 -7 70 -10 28 -4 61 -9 75 -11 14 -2 48 -6 75 -10 28 -3
61 -8 75 -10 14 -2 68 -9 120 -15 52 -6 111 -13 130 -16 19 -3 63 -7 97 -10
34 -3 72 -7 85 -9 13 -3 59 -8 102 -11 44 -3 87 -7 97 -9 10 -2 58 -6 106 -10
48 -3 104 -8 123 -10 19 -3 76 -7 125 -10 50 -3 121 -8 158 -11 38 -3 103 -7
145 -9 43 -2 147 -7 232 -12 85 -4 409 -8 720 -8 490 0 717 5 975 20 137 8
262 17 295 20 19 2 78 6 130 10 52 4 111 8 130 10 19 2 64 6 100 10 182 17
191 18 380 40 101 11 266 32 325 40 154 21 336 48 410 61 50 8 101 17 115 19
54 9 270 46 292 51 13 2 35 6 49 9 14 3 61 12 105 20 43 9 88 18 99 19 38 7
319 66 355 76 19 5 48 11 63 14 154 27 767 189 1157 306 393 117 1205 401
1375 480 11 5 94 39 185 76 91 36 183 74 205 84 22 10 74 33 115 51 41 17 98
42 125 54 624 282 1082 516 1627 834 120 69 227 130 238 136 11 5 20 13 20 17
0 5 5 8 10 8 19 0 394 238 713 452 387 260 751 527 1126 828 79 63 158 126
175 140 62 49 273 227 361 304 242 211 342 302 579 526 142 134 549 543 676
679 63 67 126 135 140 150 14 14 63 69 110 121 47 52 90 100 95 106 29 32 131
149 195 224 40 47 93 109 118 138 25 29 54 65 66 80 11 15 23 29 26 32 3 3 44
52 90 110 47 58 87 107 91 110 3 3 18 23 34 45 17 22 32 42 35 45 18 17 364
474 438 580 17 25 53 74 78 110 125 174 392 573 534 800 56 91 113 181 125
200 20 31 126 210 175 295 128 223 122 211 165 290 287 524 515 982 712 1435
30 69 61 139 68 155 8 17 52 122 98 235 268 649 528 1424 701 2080 57 217 87
333 92 360 3 14 11 50 19 80 12 47 78 342 91 405 2 11 15 74 29 140 34 164 92
479 101 540 3 28 8 52 9 55 2 3 6 26 10 50 3 25 10 70 15 100 5 30 12 75 15
100 3 25 10 70 15 100 5 30 12 78 15 105 4 28 8 61 10 75 10 68 41 316 50 398
6 61 13 130 19 187 3 22 8 74 11 115 4 41 8 91 10 110 10 111 23 272 30 395 4
55 8 125 10 155 28 432 28 1468 0 1915 -22 363 -24 384 -50 673 -10 105 -16
167 -20 197 -2 17 -7 57 -10 90 -3 33 -10 94 -15 135 -5 41 -12 95 -15 120 -3
25 -7 61 -10 80 -2 19 -7 55 -10 80 -3 25 -12 88 -20 140 -8 52 -16 111 -19
130 -8 65 -77 474 -81 480 -2 3 -6 26 -10 50 -4 25 -15 88 -25 140 -10 52 -21
106 -23 120 -22 118 -105 491 -148 665 -17 66 -32 131 -35 143 -3 13 -12 49
-20 80 -8 32 -17 65 -19 75 -2 10 -7 27 -10 37 -3 10 -8 27 -10 38 -2 10 -13
52 -25 92 -12 40 -23 80 -25 89 -39 175 -292 962 -423 1316 -144 388 -328 839
-464 1135 -198 431 -404 843 -600 1199 -37 68 -68 126 -68 127 0 2 -16 28 -35
58 -19 30 -35 57 -35 59 0 5 -101 180 -175 302 -206 343 -512 812 -718 1103
-111 156 -443 601 -520 697 -27 33 -61 76 -76 95 -108 134 -172 213 -208 256
-23 27 -85 101 -138 164 -53 63 -102 120 -109 125 -6 6 -22 24 -35 40 -12 17
-39 48 -59 70 -20 22 -71 78 -112 125 -41 47 -86 97 -100 111 -14 15 -77 82
-140 150 -210 226 -798 808 -940 929 -14 12 -48 43 -75 68 -28 26 -88 81 -135
122 -47 41 -87 77 -90 80 -3 3 -34 30 -70 60 -35 30 -76 65 -90 76 -14 12 -47
41 -75 64 -27 23 -61 52 -75 64 -139 123 -698 556 -965 746 -49 35 -91 68 -93
72 -2 4 -8 8 -14 8 -6 0 -27 13 -47 29 -49 38 -525 358 -679 455 -161 101
-482 296 -488 296 -3 0 -28 15 -57 33 -29 18 -77 47 -107 64 -30 16 -107 59
-170 95 -359 203 -832 442 -1268 642 -68 31 -125 56 -127 56 -3 0 -40 16 -82
36 -128 58 -427 184 -437 184 -4 0 -28 9 -53 21 -83 38 -447 175 -678 255 -55
20 -109 39 -120 44 -39 17 -509 167 -720 229 -670 199 -1391 363 -2090 477
-16 2 -52 9 -80 14 -27 5 -71 11 -96 15 -43 5 -59 8 -134 20 -16 2 -52 7 -80
10 -27 3 -61 8 -75 10 -14 2 -45 7 -70 10 -25 3 -61 7 -80 10 -37 5 -188 23
-257 30 -102 12 -140 16 -173 20 -19 2 -71 7 -115 10 -44 3 -91 8 -105 10 -14
2 -65 6 -115 10 -49 3 -112 8 -140 11 -27 2 -86 6 -130 9 -157 8 -291 16 -385
21 -102 7 -1296 15 -1302 9z m-443 -1030 c171 -3 326 -8 345 -10 19 -2 96 -6
170 -10 74 -4 151 -8 170 -10 19 -2 73 -6 120 -10 47 -3 101 -7 120 -9 94 -10
179 -18 215 -21 22 -2 60 -6 85 -9 25 -3 88 -10 140 -16 91 -10 109 -13 190
-24 19 -3 53 -7 75 -10 38 -5 131 -18 220 -31 22 -3 47 -8 55 -10 8 -2 35 -7
60 -10 25 -3 92 -14 150 -25 58 -10 121 -21 140 -24 41 -6 402 -79 475 -96 28
-6 61 -14 75 -16 130 -25 664 -165 950 -249 146 -42 640 -206 785 -260 153
-56 533 -205 593 -231 29 -13 54 -24 57 -24 7 0 468 -206 580 -260 146 -69
457 -225 520 -260 28 -15 88 -48 135 -72 78 -41 307 -169 372 -207 15 -9 80
-47 144 -86 64 -38 129 -77 143 -85 72 -41 186 -115 189 -122 2 -5 8 -8 14 -8
22 0 650 -426 813 -552 6 -5 73 -55 150 -113 77 -58 154 -116 170 -129 90 -71
293 -234 315 -253 14 -11 88 -74 165 -139 77 -65 156 -133 175 -151 19 -17 45
-40 57 -50 162 -140 351 -320 628 -598 272 -271 392 -399 560 -590 33 -37 65
-73 70 -79 147 -160 465 -552 667 -821 54 -71 101 -134 106 -140 4 -5 49 -68
100 -140 51 -71 98 -137 105 -145 14 -17 282 -421 349 -525 59 -91 309 -509
347 -577 15 -29 60 -109 98 -178 93 -166 314 -589 318 -610 1 -3 34 -72 73
-154 40 -82 72 -150 72 -151 0 -2 17 -41 39 -87 21 -45 60 -132 86 -193 26
-60 55 -128 65 -150 94 -213 310 -791 405 -1085 65 -200 156 -500 175 -575 4
-16 16 -57 25 -90 9 -33 21 -76 25 -95 5 -19 27 -107 49 -195 23 -88 43 -169
45 -180 3 -11 14 -60 26 -110 12 -49 23 -99 26 -110 2 -11 17 -85 34 -165 16
-80 32 -156 34 -170 3 -14 12 -59 20 -100 8 -41 17 -95 21 -120 4 -24 8 -47
10 -50 1 -3 6 -25 9 -50 3 -25 8 -56 11 -70 5 -26 43 -269 50 -317 2 -16 8
-66 14 -113 7 -47 14 -103 17 -125 3 -22 7 -51 9 -65 2 -14 7 -54 10 -90 4
-36 8 -78 10 -95 4 -28 14 -122 20 -190 2 -16 6 -66 10 -110 4 -44 9 -98 11
-120 1 -22 6 -87 9 -145 4 -57 8 -120 10 -140 27 -257 27 -1292 0 -1705 -14
-228 -41 -547 -50 -615 -2 -14 -6 -54 -10 -90 -6 -66 -10 -102 -20 -177 -3
-24 -7 -61 -10 -83 -8 -65 -16 -123 -20 -150 -2 -14 -7 -45 -10 -70 -3 -25
-10 -70 -15 -100 -5 -30 -12 -71 -14 -90 -12 -90 -18 -135 -21 -140 -2 -3 -6
-24 -9 -46 -4 -22 -9 -51 -11 -64 -3 -14 -10 -54 -16 -90 -5 -36 -23 -130 -40
-210 -16 -80 -32 -156 -34 -170 -38 -212 -209 -878 -307 -1195 -17 -55 -31
-102 -31 -105 -1 -9 -164 -493 -185 -550 -11 -30 -38 -104 -61 -165 -91 -251
-296 -746 -401 -970 -23 -49 -58 -124 -77 -165 -95 -204 -275 -554 -403 -785
-123 -220 -163 -290 -307 -530 -115 -192 -408 -634 -573 -865 -123 -171 -331
-450 -355 -476 -5 -6 -21 -26 -35 -44 -28 -37 -233 -291 -266 -330 -145 -170
-295 -343 -324 -375 -231 -254 -287 -312 -550 -575 -247 -247 -327 -324 -499
-480 -52 -47 -99 -90 -105 -95 -6 -6 -42 -37 -81 -70 -38 -33 -72 -62 -75 -65
-3 -3 -34 -30 -70 -60 -36 -30 -67 -57 -70 -60 -11 -11 -179 -149 -275 -225
-55 -44 -102 -82 -105 -85 -53 -53 -636 -475 -875 -633 -88 -58 -165 -110
-171 -114 -5 -4 -19 -13 -30 -20 -27 -16 -242 -151 -284 -178 -52 -34 -331
-198 -425 -250 -276 -154 -469 -256 -709 -375 -156 -77 -286 -140 -289 -140
-2 0 -51 -22 -108 -49 -516 -242 -1325 -542 -1917 -712 -59 -17 -136 -39 -172
-49 -147 -42 -649 -167 -745 -186 -11 -2 -85 -17 -165 -33 -175 -36 -196 -41
-235 -47 -16 -3 -64 -11 -105 -19 -99 -19 -421 -73 -485 -80 -27 -4 -57 -8
-65 -10 -8 -2 -37 -6 -65 -10 -27 -3 -66 -8 -85 -10 -19 -3 -55 -8 -80 -11
-25 -3 -61 -7 -80 -9 -19 -3 -62 -7 -95 -11 -33 -3 -71 -7 -85 -9 -14 -3 -54
-7 -90 -10 -36 -3 -83 -8 -105 -10 -37 -5 -68 -7 -225 -19 -397 -31 -660 -40
-1130 -40 -440 0 -759 12 -1085 39 -27 2 -84 7 -125 10 -41 3 -91 7 -110 10
-19 2 -66 7 -105 10 -38 3 -81 8 -95 10 -14 2 -52 7 -85 10 -33 3 -98 10 -145
16 -47 6 -103 13 -125 15 -22 3 -51 7 -65 9 -14 3 -45 7 -70 11 -25 3 -56 7
-70 10 -14 2 -45 6 -70 10 -25 3 -52 7 -60 9 -8 3 -44 9 -80 14 -74 12 -102
16 -220 38 -47 8 -94 16 -106 18 -11 2 -45 8 -75 14 -31 7 -67 14 -81 16 -14
3 -70 14 -124 26 -55 11 -108 22 -119 24 -138 28 -673 160 -774 191 -25 7
-100 29 -166 48 -1099 314 -2209 792 -3230 1389 -1216 711 -2347 1623 -3300
2662 -55 59 -107 116 -115 124 -8 9 -58 66 -110 126 -52 61 -99 115 -105 121
-5 6 -30 35 -55 64 -25 30 -59 70 -76 90 -17 19 -57 69 -90 110 -32 41 -61 77
-64 80 -9 8 -181 229 -235 300 -27 36 -53 70 -57 75 -12 14 -64 84 -145 195
-329 450 -662 976 -966 1527 -81 147 -388 748 -397 778 -2 6 -23 53 -47 105
-144 308 -388 911 -493 1220 -12 36 -26 74 -31 85 -9 21 -123 375 -141 435 -5
19 -12 42 -15 50 -3 8 -7 20 -8 25 -2 6 -11 37 -21 70 -10 33 -19 65 -20 70
-2 6 -26 91 -54 190 -44 159 -140 536 -154 605 -2 14 -11 54 -20 90 -8 36 -17
76 -20 90 -2 14 -9 45 -15 70 -5 25 -12 58 -15 74 -3 16 -10 52 -16 80 -42
206 -115 642 -144 861 -14 109 -36 287 -41 340 -3 33 -8 71 -10 85 -2 14 -7
57 -10 95 -3 39 -8 88 -10 110 -7 66 -14 155 -20 240 -3 44 -7 109 -10 145 -5
60 -8 122 -21 405 -6 139 -6 885 0 1025 9 194 17 343 21 395 2 28 7 95 10 150
4 55 8 116 10 135 2 19 6 73 10 120 4 47 9 99 11 115 2 17 6 55 9 85 3 30 8
69 10 85 2 17 7 58 10 93 4 35 8 73 10 84 3 11 7 46 10 77 4 31 16 117 27 191
11 74 21 149 23 167 2 17 16 98 30 180 14 81 28 158 30 171 21 123 99 503 131
637 3 11 7 31 10 43 13 64 80 331 110 442 19 69 36 134 39 145 17 76 144 490
211 690 106 311 306 850 358 960 13 26 23 51 56 130 5 11 23 51 39 88 17 38
31 70 31 72 0 3 15 37 34 77 19 40 64 138 101 218 75 163 289 585 385 760 135
247 246 434 480 815 21 33 102 157 181 275 283 422 563 798 875 1176 111 134
132 159 155 185 13 14 49 54 79 89 184 215 416 463 671 719 114 115 411 400
459 441 14 12 43 38 65 59 34 31 226 200 330 290 479 413 1185 926 1755 1275
52 32 107 67 122 77 15 11 30 19 32 19 3 0 34 17 68 38 506 310 1358 730 1948
962 47 18 99 39 115 45 17 7 93 36 170 65 77 29 167 62 200 75 222 84 1018
332 1155 360 8 2 85 21 170 43 85 22 182 46 215 53 33 7 62 13 65 14 84 20
201 46 220 49 14 3 34 7 45 9 109 25 337 69 475 92 19 3 53 10 75 15 22 4 63
11 90 15 28 3 91 12 140 20 50 8 108 16 130 20 22 3 67 10 100 15 33 5 83 12
110 15 28 3 84 9 125 15 41 5 104 12 140 15 36 3 76 8 90 10 14 2 57 6 95 10
39 3 86 8 105 10 19 2 76 7 125 10 50 4 110 8 135 10 49 4 252 16 340 20 30 2
197 6 370 10 173 4 317 9 319 11 2 2 7 2 10 0 3 -2 146 -7 316 -11z"/>
<path d="M19780 28577 c182 -127 522 -369 530 -377 9 -10 453 -333 665 -483
312 -222 589 -432 728 -552 7 -5 41 -35 77 -65 36 -30 81 -69 100 -86 99 -88
160 -142 205 -183 72 -66 481 -476 539 -541 28 -30 73 -80 100 -110 79 -86
163 -182 296 -340 67 -80 132 -156 144 -170 126 -149 513 -655 618 -810 10
-14 43 -61 74 -105 66 -94 307 -458 350 -528 16 -27 41 -67 56 -90 25 -40 109
-180 134 -222 6 -11 40 -69 76 -130 127 -217 240 -430 383 -720 118 -242 138
-283 186 -390 12 -27 35 -79 51 -115 66 -145 227 -551 288 -725 137 -393 294
-924 326 -1105 3 -14 9 -38 14 -55 5 -16 14 -55 19 -85 6 -30 13 -64 16 -75
15 -72 56 -280 65 -332 5 -35 12 -75 15 -90 9 -49 45 -295 50 -342 3 -25 10
-80 15 -121 17 -144 20 -166 25 -250 4 -47 8 -101 10 -120 26 -217 26 -1113 1
-1245 -2 -11 -7 -65 -11 -120 -4 -55 -8 -102 -10 -105 -1 -3 -6 -37 -9 -76 -4
-39 -8 -80 -10 -90 -2 -11 -7 -41 -10 -69 -9 -71 -26 -178 -42 -265 -8 -41
-16 -92 -20 -113 -5 -35 -44 -224 -79 -382 -18 -82 -84 -331 -114 -427 -12
-38 -30 -96 -40 -130 -11 -35 -40 -130 -66 -213 -39 -128 -63 -208 -80 -275
-8 -32 -54 -257 -59 -287 -2 -18 -1 -33 3 -33 14 0 198 187 257 262 33 40 61
75 64 78 22 19 347 499 437 645 237 380 450 800 608 1195 62 156 142 377 182
505 50 162 109 367 118 417 3 15 9 38 15 52 5 15 7 26 5 26 -2 0 0 11 4 24 17
43 103 469 115 566 2 19 9 62 15 95 5 33 13 83 16 110 3 28 7 60 9 72 3 12 7
48 11 80 3 32 8 78 11 103 3 25 7 59 9 75 2 17 7 66 10 110 4 44 9 96 10 115
27 273 27 1041 0 1320 -2 19 -6 73 -10 119 -4 47 -8 92 -10 100 -2 9 -6 48
-10 86 -4 39 -9 81 -11 95 -2 14 -6 45 -10 70 -7 59 -33 229 -38 255 -2 11 -6
36 -9 55 -14 82 -17 96 -22 120 -3 14 -8 39 -11 55 -24 135 -95 429 -149 616
-63 218 -200 623 -250 734 -7 17 -34 81 -59 142 -210 511 -555 1114 -924 1613
-80 109 -309 399 -322 410 -4 3 -33 37 -65 75 -33 39 -64 75 -70 81 -5 6 -44
49 -85 95 -97 108 -480 492 -589 589 -46 41 -89 80 -95 85 -6 6 -40 35 -76 65
-36 30 -67 57 -70 60 -3 3 -41 35 -85 70 -44 36 -87 71 -95 77 -8 7 -80 62
-160 122 -80 60 -156 118 -170 129 -14 11 -101 71 -195 134 -675 453 -1349
777 -2085 1002 -93 28 -343 96 -410 111 -108 25 -375 78 -445 89 -49 8 -108
17 -130 21 -52 8 -76 11 -155 20 -36 4 -78 9 -95 11 -16 2 -61 6 -100 9 -38 4
-90 8 -115 10 -25 3 -135 7 -245 11 l-200 6 65 -45z"/>
<path d="M13678 28435 c-2 -2 -70 -6 -153 -9 -82 -4 -166 -9 -185 -11 -19 -2
-73 -6 -120 -9 -171 -13 -221 -18 -360 -36 -41 -6 -100 -12 -130 -15 -30 -3
-82 -10 -115 -15 -33 -5 -80 -12 -105 -15 -60 -8 -203 -32 -335 -56 -258 -46
-655 -139 -915 -213 -260 -74 -589 -182 -770 -253 -63 -24 -144 -56 -180 -69
-82 -32 -285 -118 -370 -156 -183 -83 -244 -112 -465 -224 -318 -161 -493
-258 -785 -438 -157 -97 -530 -346 -606 -405 -16 -12 -89 -67 -163 -122 -234
-175 -564 -447 -716 -590 -27 -26 -61 -57 -75 -69 -68 -58 -379 -372 -530
-535 -178 -193 -544 -633 -630 -758 -8 -12 -44 -61 -80 -109 -36 -48 -94 -130
-130 -183 -36 -54 -70 -102 -76 -109 -20 -21 -261 -402 -356 -561 -91 -154
-139 -239 -220 -390 -57 -105 -272 -534 -290 -580 -15 -36 -115 -260 -138
-310 -88 -189 -282 -727 -391 -1085 -42 -137 -161 -583 -175 -655 -2 -11 -11
-51 -19 -90 -30 -133 -34 -150 -39 -185 -3 -19 -6 -38 -7 -42 0 -4 -7 -36 -15
-70 -8 -34 -17 -78 -20 -98 -3 -19 -13 -84 -24 -145 -10 -60 -24 -146 -30
-190 -5 -44 -12 -91 -14 -105 -5 -29 -18 -133 -21 -170 -2 -25 -13 -119 -20
-175 -2 -16 -7 -75 -10 -130 -4 -55 -8 -111 -10 -124 -27 -167 -27 -1148 0
-1461 1 -19 6 -73 9 -120 4 -47 9 -103 11 -125 2 -22 7 -65 9 -96 3 -31 8 -72
10 -90 3 -19 10 -77 16 -129 6 -52 13 -107 16 -121 2 -15 6 -47 9 -70 5 -39
41 -263 50 -310 2 -9 7 -39 11 -66 5 -26 9 -50 9 -53 1 -3 5 -23 9 -45 34
-183 143 -655 187 -810 148 -523 268 -867 464 -1340 35 -82 77 -181 95 -220
17 -38 39 -86 47 -105 24 -55 236 -479 270 -540 17 -30 54 -98 82 -150 75
-136 75 -136 192 -330 95 -158 196 -319 216 -345 4 -6 30 -44 58 -85 66 -100
237 -344 244 -350 4 -3 31 -39 61 -80 30 -41 71 -95 90 -120 20 -25 74 -92
120 -150 89 -111 267 -324 316 -376 16 -18 65 -72 109 -120 109 -122 509 -521
624 -624 52 -47 102 -92 111 -100 9 -8 47 -42 85 -75 39 -33 72 -62 75 -65 3
-3 77 -64 165 -135 1162 -942 2518 -1609 4051 -1994 164 -41 366 -88 419 -97
17 -2 37 -7 45 -9 8 -2 31 -7 50 -10 19 -3 53 -10 75 -15 22 -5 56 -11 75 -15
19 -3 46 -7 60 -10 29 -5 51 -9 180 -29 52 -8 115 -18 140 -21 25 -3 56 -8 70
-10 74 -11 208 -27 335 -40 33 -3 78 -8 100 -10 22 -2 78 -7 125 -11 47 -3
105 -7 130 -10 281 -25 1053 -24 1360 1 25 2 82 6 128 10 46 3 102 8 125 10
23 2 89 9 147 15 58 6 116 13 130 15 14 2 50 7 80 10 30 3 62 8 70 10 8 2 42
6 75 10 33 3 78 10 100 15 22 4 63 11 90 14 28 4 61 9 75 11 14 3 36 7 50 10
14 3 36 7 50 10 14 2 39 7 55 10 17 3 41 7 55 10 14 3 37 7 53 10 15 3 60 12
100 21 39 9 81 18 92 19 23 4 18 3 205 48 150 37 386 100 430 117 14 5 66 21
115 36 181 54 903 304 1015 351 8 3 17 7 20 7 8 2 213 76 238 87 13 5 71 25
130 45 99 33 168 63 117 50 -18 -5 -66 -9 -210 -21 -57 -5 -193 -13 -345 -20
-129 -7 -219 -13 -285 -20 -27 -2 -77 -7 -110 -10 -33 -3 -67 -8 -75 -10 -17
-4 -100 -16 -145 -20 -16 -1 -52 -5 -80 -8 -27 -4 -75 -9 -105 -12 -30 -3 -68
-8 -85 -10 -36 -5 -95 -10 -345 -30 -323 -25 -584 -35 -975 -35 -388 1 -652
10 -985 35 -285 21 -702 112 -1165 254 -110 34 -207 63 -219 66 -6 1 -18 5
-26 8 -8 3 -76 24 -150 48 -253 79 -667 238 -893 343 -42 20 -80 36 -83 36
-12 0 -488 242 -619 315 -329 182 -763 460 -1029 658 -107 79 -334 256 -401
312 -44 37 -100 83 -125 103 -39 32 -125 107 -140 122 -3 3 -48 43 -100 90
-168 149 -531 517 -695 704 -33 38 -65 74 -71 80 -5 6 -54 65 -108 131 -54 66
-105 129 -115 140 -15 19 -153 203 -189 254 -9 12 -31 42 -48 65 -111 149
-437 659 -544 851 -421 757 -705 1433 -926 2199 -51 180 -137 515 -149 587 -3
19 -10 50 -15 69 -5 19 -11 46 -13 60 -3 14 -16 84 -30 155 -27 135 -47 245
-52 280 -1 11 -6 40 -9 65 -4 25 -9 56 -11 70 -8 58 -17 117 -20 140 -3 14 -7
46 -10 71 -14 117 -19 165 -31 279 -3 36 -8 79 -9 95 -2 17 -6 75 -10 130 -4
55 -8 116 -10 135 -22 223 -21 845 0 1090 3 25 7 74 10 110 3 36 7 81 10 100
2 19 7 64 10 100 4 36 8 76 10 90 27 191 31 218 45 300 5 30 11 72 14 92 3 21
10 57 15 80 6 24 12 58 15 76 4 17 8 45 11 61 10 61 86 383 124 526 38 144 94
331 159 535 156 483 421 1106 663 1552 40 73 79 147 87 163 9 17 18 32 22 35
4 3 10 13 13 24 26 69 370 609 518 812 80 110 220 296 229 304 3 3 41 50 85
105 44 55 82 102 85 105 3 3 45 52 95 110 242 283 672 720 899 913 11 10 35
30 51 45 17 15 84 72 150 127 66 55 122 102 125 105 15 16 343 265 430 327
420 297 802 529 1225 742 257 130 309 154 545 253 91 38 174 73 185 78 28 12
237 91 255 96 8 2 74 24 145 50 72 25 137 47 145 49 8 3 89 27 180 55 317 97
847 220 1145 266 17 3 53 9 80 14 28 5 75 12 105 16 30 3 62 8 70 9 20 4 91
12 165 20 33 4 71 8 85 10 14 2 61 7 105 10 44 3 96 8 115 10 38 4 202 14 340
21 218 10 691 4 905 -11 144 -10 214 -16 255 -20 25 -3 65 -7 90 -10 212 -22
311 -35 515 -70 110 -19 211 -37 225 -39 14 -3 39 -8 55 -11 239 -46 582 -134
830 -212 100 -32 333 -111 360 -123 11 -4 65 -25 120 -46 339 -127 1030 -442
1313 -598 108 -60 85 -46 347 -205 358 -217 621 -385 732 -467 17 -13 34 -24
37 -24 18 0 -117 199 -188 276 -188 206 -644 589 -931 784 -27 18 -52 36 -55
39 -10 12 -341 231 -475 316 -77 48 -156 98 -175 111 -58 38 -332 204 -335
204 -2 0 -24 14 -48 30 -25 17 -47 30 -51 30 -3 0 -39 20 -79 45 -41 25 -77
45 -81 45 -4 0 -25 12 -48 26 -71 45 -454 238 -633 319 -702 318 -1376 538
-2128 695 -177 36 -365 71 -462 85 -22 3 -51 8 -65 10 -66 12 -99 17 -205 30
-65 8 -113 14 -150 20 -36 6 -131 15 -200 20 -27 3 -75 7 -105 11 -65 7 -88 9
-240 19 -63 4 -140 9 -170 11 -57 5 -897 13 -902 9z"/>
<path d="M17067 24074 c-1 -1 -87 -4 -192 -8 -104 -4 -208 -9 -230 -11 -22 -2
-83 -6 -135 -9 -52 -3 -138 -8 -190 -11 -102 -7 -227 -13 -300 -15 -43 -2 -44
-2 -15 -11 17 -5 39 -11 50 -13 11 -2 47 -11 80 -19 33 -9 71 -18 85 -21 14
-3 57 -12 95 -20 39 -8 81 -17 95 -19 169 -31 222 -40 340 -56 41 -6 95 -13
120 -16 25 -4 56 -8 70 -10 14 -2 54 -6 90 -10 36 -3 81 -8 100 -10 19 -3 64
-7 99 -10 35 -3 77 -7 95 -10 17 -2 63 -7 101 -10 71 -7 95 -9 175 -19 25 -4
68 -9 95 -11 28 -3 75 -10 105 -15 30 -5 71 -12 90 -15 76 -10 192 -33 285
-57 44 -11 87 -21 95 -23 85 -17 466 -158 598 -221 40 -18 75 -34 78 -34 21 0
359 -178 519 -273 759 -451 1439 -1098 1937 -1844 101 -151 144 -219 174 -273
10 -19 22 -36 27 -38 4 -2 7 -7 7 -11 0 -4 28 -57 61 -117 255 -454 462 -994
604 -1574 13 -51 65 -313 70 -350 3 -25 8 -52 10 -60 2 -8 6 -28 9 -45 5 -27
8 -51 21 -155 3 -19 7 -66 11 -104 3 -38 7 -77 9 -88 23 -118 23 -660 1 -883
-2 -16 -7 -65 -10 -107 -4 -43 -9 -88 -11 -100 -2 -13 -8 -57 -14 -98 -18
-130 -20 -147 -40 -250 -16 -81 -18 -88 -35 -175 -51 -246 -163 -615 -270
-887 -44 -114 -54 -137 -139 -323 -63 -141 -211 -421 -284 -540 -7 -11 -24
-40 -39 -65 -277 -463 -691 -962 -1144 -1377 -130 -119 -431 -360 -566 -453
-232 -160 -390 -260 -574 -363 -121 -67 -409 -212 -490 -246 -30 -13 -75 -32
-100 -43 -259 -117 -794 -289 -1062 -342 -13 -2 -54 -11 -93 -19 -38 -9 -86
-18 -105 -21 -19 -3 -46 -8 -60 -11 -51 -10 -287 -44 -350 -50 -36 -3 -76 -8
-90 -10 -25 -4 -116 -11 -270 -21 -92 -6 -554 -6 -660 0 -145 8 -265 18 -380
30 -119 14 -145 17 -170 21 -14 2 -45 6 -70 10 -91 13 -106 16 -175 30 -38 8
-86 17 -105 20 -19 3 -114 26 -210 50 -471 119 -1014 338 -1454 587 -66 38
-120 68 -122 68 -10 0 -367 231 -430 279 -12 9 -32 23 -44 31 -112 75 -376
288 -545 440 -64 57 -354 347 -420 420 -381 416 -740 954 -965 1445 -139 303
-263 664 -344 1007 -48 198 -73 325 -97 478 -5 36 -11 72 -14 80 -3 14 -7 44
-20 158 -3 26 -8 58 -10 72 -3 14 -7 57 -11 95 -4 39 -8 81 -9 95 -19 174 -36
495 -39 753 -2 97 -5 180 -9 183 -3 3 -17 -32 -32 -78 -37 -118 -54 -199 -70
-353 -14 -127 -37 -649 -38 -835 0 -126 11 -465 18 -530 2 -19 6 -73 10 -120
4 -47 8 -96 10 -110 2 -14 7 -47 10 -75 17 -131 70 -425 100 -550 34 -147 67
-282 76 -310 5 -16 23 -77 40 -135 26 -89 58 -186 120 -370 7 -19 18 -48 24
-65 7 -16 31 -77 53 -135 90 -233 276 -623 397 -830 49 -85 67 -117 96 -165
34 -59 206 -326 232 -360 4 -5 46 -64 94 -130 289 -400 691 -841 1038 -1140
38 -33 76 -65 83 -72 7 -7 34 -29 60 -50 26 -21 49 -41 52 -44 3 -4 28 -24 55
-44 28 -21 52 -41 55 -44 16 -21 404 -301 478 -346 9 -6 58 -37 107 -69 234
-153 609 -358 880 -481 32 -14 111 -47 175 -72 63 -25 124 -49 135 -53 122
-52 580 -188 716 -214 13 -2 54 -11 92 -20 37 -9 82 -18 100 -21 17 -3 48 -10
67 -15 19 -5 58 -12 85 -16 28 -3 53 -8 56 -10 6 -3 309 -52 374 -59 43 -5
101 -14 150 -21 17 -3 44 -7 60 -8 32 -4 174 -24 215 -32 14 -2 43 -6 65 -9
149 -19 196 -25 245 -30 30 -4 66 -8 80 -10 153 -24 596 -24 790 0 14 1 60 6
102 9 81 8 120 12 178 20 19 3 59 8 89 12 30 3 63 7 74 10 11 2 41 6 66 9 25
3 55 7 66 9 50 9 93 16 130 22 64 9 336 63 343 68 4 2 23 7 42 10 57 9 72 13
216 51 137 36 169 45 354 104 392 124 865 333 1240 545 73 42 134 76 137 76 2
0 27 15 56 34 28 18 79 50 112 71 154 98 416 278 470 322 6 5 48 37 94 73 308
234 758 658 976 920 21 25 40 47 44 50 4 3 45 52 92 110 46 58 86 107 89 110
3 3 32 41 65 85 33 44 64 84 68 90 4 5 30 42 57 80 27 39 53 75 57 80 46 56
272 419 355 570 116 211 272 537 352 740 16 39 32 79 37 90 72 165 245 724
283 915 7 33 12 58 35 165 22 99 48 238 56 300 3 22 7 49 9 61 2 12 7 45 11
75 3 30 8 65 10 79 7 42 15 102 20 165 3 33 8 76 10 95 3 19 7 78 10 130 4 52
8 113 10 135 6 58 6 587 0 670 -2 39 -7 108 -10 155 -3 47 -8 103 -10 125 -2
22 -7 67 -10 100 -3 33 -8 74 -10 90 -2 17 -6 46 -9 65 -17 129 -31 223 -40
260 -3 14 -8 42 -11 63 -6 45 -33 177 -45 227 -5 19 -11 46 -14 60 -9 53 -78
320 -107 415 -129 423 -247 718 -440 1100 -152 300 -250 468 -437 745 -219
327 -352 498 -636 820 -86 97 -467 470 -571 559 -61 51 -123 106 -140 120 -23
21 -155 125 -270 214 -69 53 -211 153 -340 238 -582 386 -1223 679 -1900 868
-60 17 -126 36 -145 41 -123 34 -422 99 -625 135 -16 2 -50 7 -75 11 -25 3
-52 7 -60 9 -18 5 -206 32 -270 39 -25 3 -66 8 -92 11 -90 10 -133 14 -208 20
-41 3 -88 8 -105 10 -66 8 -471 24 -478 19z"/>
</g>
</svg>
