<svg id="Layer_1" data-name="Layer 1" xmlns="http://www.w3.org/2000/svg" viewBox="0 0 590.43 590.43"><defs><style>.cls-1{fill:#fff;}</style></defs><title>Logo</title><circle cx="295.22" cy="295.22" r="295.22"/><circle class="cls-1" cx="272.31" cy="262.87" r="245.17"/><path d="M1094,533.08c-5.79.69-9.92.57-16.38,1.19a222.15,222.15,0,0,1-48.43,1.62c-7.68-.58-15.42-3-22.79-5.17-31-9-60.89-29.33-80.56-55.1a172.31,172.31,0,0,1-34.72-99.84c-.77-31.45,11.45-65.87,29.41-91.22a164.37,164.37,0,0,1,43.14-41.42,154.83,154.83,0,0,1,50.57-21.62c29.3-6.9,61.93-4.67,89.74,7.18,7.83,3.34,16,6.91,23.23,11.38,4.84,3,9,5.33,14.51,9.28-2.06-4.47-6.27-7.92-10-11.07-8.33-7.09-17.71-13-27.06-18.66-46-27.66-105.66-31.92-155.26-11.5A178,178,0,0,0,896,242.24c-31.84,29.91-52.51,73.17-55.49,117-3.46,51,15.38,102.49,51.22,138.63C915.93,522.33,946,538,979.3,545.55a174.43,174.43,0,0,0,78.34-.42C1070.12,542.19,1081.89,537.23,1094,533.08Z" transform="translate(-773.68 -93.06)"/><path d="M1112.52,192.21c9.4,6.37,16.2,11.82,24,17.16a161.08,161.08,0,0,1,27.36,24.41c33.37,36.88,58,85.75,55.75,136.68a141,141,0,0,1-4.72,29.58c-1.66,6.29-4.25,12.58-5.12,19,4.83-3.91,8.33-9.66,11.74-14.8A127.29,127.29,0,0,0,1240.8,355c4.26-25.59,2.35-51.86-7.25-76.09C1214.7,231.29,1164.91,192.22,1112.52,192.21Z" transform="translate(-773.68 -93.06)"/><path d="M1048,271.32a101.17,101.17,0,0,0,14.8,2.92c9.49,1.25,18.27,1.28,27.41,4.34,27,9.06,49.47,31.06,60.41,56.66,5.63,13.17,9.07,28.55,8.43,42.86-2.41,54-49.4,98.8-104.39,98.8-10.65,0-21-1.17-31.1-4.61a109.74,109.74,0,0,1-34.81-19.06A101.31,101.31,0,0,1,963,421.69c-8.86-17.26-11.3-35.39-11.3-54.48-2.14,4.67-2,10.22-2.25,15.25A112.48,112.48,0,0,0,950,402.8c5.35,40.37,31.12,74.41,68.34,92.08,10.66,5.05,22.41,7.6,34.07,9.11,7.37.95,14.75,2.41,22.22,1.91,12.18-.82,24.84-3,36.29-7.25,41-15.26,70.33-51,76.37-93.67a114.53,114.53,0,0,0-8-61.74,121.26,121.26,0,0,0-46.87-54.45c-18.93-11.82-40-17.22-62.21-18.17C1062.75,270.3,1055.43,271.3,1048,271.32Z" transform="translate(-773.68 -93.06)"/></svg>