<?xml version="1.0" encoding="utf-8"?>
<!-- Generator: Adobe Illustrator 22.1.0, SVG Export Plug-In . SVG Version: 6.00 Build 0)  -->
<svg version="1.1" id="Layer_1" xmlns="http://www.w3.org/2000/svg" xmlns:xlink="http://www.w3.org/1999/xlink" x="0px" y="0px"
	 viewBox="0 0 590.4 590.4" style="enable-background:new 0 0 590.4 590.4;" xml:space="preserve">
<style type="text/css">
	.st0{fill:#FFFFFF;}
</style>
<title>Logo</title>
<path class="st0" d="M295.2,0C132.2,0,0,132.2,0,295.2s132.2,295.2,295.2,295.2s295.2-132.2,295.2-295.2S458.3,0,295.2,0z
	 M272.3,508C136.9,508,27.1,398.3,27.1,262.9S136.9,17.7,272.3,17.7s245.2,109.8,245.2,245.2S407.7,508,272.3,508z"/>
<path class="st0" d="M320.3,440c-5.8,0.7-9.9,0.6-16.4,1.2c-16,2.3-32.3,2.8-48.4,1.6c-7.7-0.6-15.4-3-22.8-5.2
	c-31-9-60.9-29.3-80.6-55.1c-21.7-28.8-33.9-63.7-34.7-99.8c-0.8-31.5,11.5-65.9,29.4-91.2c11.7-16.3,26.3-30.4,43.1-41.4
	c15.4-10.2,32.6-17.5,50.6-21.6c29.3-6.9,61.9-4.7,89.7,7.2c7.8,3.3,16,6.9,23.2,11.4c4.8,3,9,5.3,14.5,9.3
	c-2.1-4.5-6.3-7.9-10-11.1c-8.3-7.1-17.7-13-27.1-18.7c-46-27.7-105.7-31.9-155.3-11.5c-19.7,8.1-37.8,19.6-53.4,34.1
	c-31.8,29.9-52.5,73.2-55.5,117c-3.5,51,15.4,102.5,51.2,138.6c24.2,24.5,54.3,40.1,87.6,47.7c25.8,5.8,52.6,5.7,78.3-0.4
	C296.4,449.1,308.2,444.2,320.3,440z"/>
<path class="st0" d="M338.8,99.2c9.4,6.4,16.2,11.8,24,17.2c10,7.1,19.2,15.3,27.4,24.4c33.4,36.9,58,85.8,55.8,136.7
	c-0.5,10-2.1,19.9-4.7,29.6c-1.7,6.3-4.3,12.6-5.1,19c4.8-3.9,8.3-9.7,11.7-14.8c9.8-14.9,16.4-31.7,19.3-49.2
	c4.3-25.6,2.3-51.9-7.3-76.1C441,138.2,391.2,99.2,338.8,99.2z"/>
<path class="st0" d="M274.3,178.3c4.9,1.3,9.8,2.3,14.8,2.9c9.5,1.3,18.3,1.3,27.4,4.3c27,9.1,49.5,31.1,60.4,56.7
	c5.6,13.2,9.1,28.5,8.4,42.9C383,339,336,383.8,281,383.8c-10.7,0-21-1.2-31.1-4.6c-12.7-4.2-24.5-10.6-34.8-19.1
	c-10.6-8.7-19.4-19.4-25.8-31.5c-8.9-17.3-11.3-35.4-11.3-54.5c-2.1,4.7-2,10.2-2.3,15.3c-0.4,6.8-0.2,13.6,0.5,20.3
	c5.3,40.4,31.1,74.4,68.3,92.1c10.7,5,22.4,7.6,34.1,9.1c7.4,1,14.8,2.4,22.2,1.9c12.2-0.8,24.8-3,36.3-7.3
	c41-15.3,70.3-51,76.4-93.7c3.1-20.9,0.3-42.3-8-61.7c-9.8-22.5-26.1-41.5-46.9-54.5c-18.9-11.8-40-17.2-62.2-18.2
	C289.1,177.2,281.8,178.2,274.3,178.3z"/>
</svg>
